<?xml version="1.0" encoding="UTF-8" standalone="no"?>
<svg id="Logo_-_Azul" data-name="Logo - Azul" xmlns="http://www.w3.org/2000/svg" xmlns:xlink="http://www.w3.org/1999/xlink" width="40.243" height="36.999" viewBox="0 0 40.243 36.999">
	<defs>
		<clipPath id="clip-path">
			<rect id="Ret창ngulo_1095" data-name="Ret창ngulo 1095" width="40.243" height="36.999" fill="none"/>
		</clipPath>
	</defs>
	<g id="Logo_-_Azul-2" data-name="Logo - Azul">
		<path id="Caminho_211" data-name="Caminho 211" d="M456.933,374.356v1.616h.475v-.547h2.851V374.9h-2.851v-.546Z" transform="translate(-420.055 -344.142)" fill="#2c72b7"/>
		<path id="Caminho_212" data-name="Caminho 212" d="M459.784,349.155v.9h-.974v-.718h-.475v.718h-.927v-.9h-.475v1.426h3.327v-1.426Z" transform="translate(-420.054 -320.975)" fill="#2c72b7"/>
		<g id="Grupo_208" data-name="Grupo 208">
			<g id="Grupo_207" data-name="Grupo 207" clip-path="url(#clip-path)">
				<path id="Caminho_213" data-name="Caminho 213" d="M458.585,321.657h.442c.532,0,.836.266.836.779s-.3.779-.836.779H457.3c-.532,0-.836-.266-.836-.779s.3-.779.836-.779h.323v.494h-.356c-.238,0-.328.1-.328.271s.09.271.328.271h1.8c.238,0,.323-.1.323-.271s-.086-.271-.323-.271h-.475Z" transform="translate(-419.621 -295.697)" fill="#2c72b7"/>
				<path id="Caminho_214" data-name="Caminho 214" d="M457.85,293.7h2.409v.47h-3.327v-.656l1.991-.537h-1.991v-.466h3.327v.537Z" transform="translate(-420.054 -268.903)" fill="#2c72b7"/>
				<path id="Caminho_215" data-name="Caminho 215" d="M457.3,265.388a.795.795,0,1,1,0-1.587h1.73a.795.795,0,1,1,0,1.587Zm1.763-.523c.238,0,.328-.1.328-.271s-.09-.271-.328-.271h-1.8c-.238,0-.328.1-.328.271s.09.271.328.271Z" transform="translate(-419.621 -242.51)" fill="#2c72b7"/>
				<path id="Caminho_216" data-name="Caminho 216" d="M456.932,239.583v-.523h2.851v-.86h.475v1.383Z" transform="translate(-420.054 -218.975)" fill="#2c72b7"/>
				<path id="Caminho_217" data-name="Caminho 217" d="M457.3,214.878a.795.795,0,1,1,0-1.587h1.73a.795.795,0,1,1,0,1.587Zm1.763-.523c.238,0,.328-.1.328-.271s-.09-.271-.328-.271h-1.8c-.238,0-.328.1-.328.271s.09.271.328.271Z" transform="translate(-419.621 -196.077)" fill="#2c72b7"/>
				<path id="Caminho_218" data-name="Caminho 218" d="M457.972,185.925v-.732h1.055c.532,0,.836.266.836.779s-.3.779-.836.779H457.3c-.532,0-.836-.266-.836-.779s.3-.779.836-.779h.323v.494h-.356c-.238,0-.328.1-.328.271s.09.271.328.271h1.8c.238,0,.323-.1.323-.271s-.086-.271-.323-.271h-.613v.238Z" transform="translate(-419.621 -170.246)" fill="#2c72b7"/>
				<rect id="Ret창ngulo_1094" data-name="Ret창ngulo 1094" width="3.327" height="0.523" transform="translate(36.878 13.706)" fill="#2c72b7"/>
				<path id="Caminho_219" data-name="Caminho 219" d="M460.26,140.291v.528l-.6.09v.642l.6.09v.48l-3.327-.532v-.765Zm-1.055,1.193v-.5l-1.682.252Z" transform="translate(-420.055 -128.968)" fill="#2c72b7"/>
				<path id="Caminho_220" data-name="Caminho 220" d="M9.834,240.092h3.125v12.3h-2.5l-.624-1.429a4.755,4.755,0,0,1-3.948,1.768,5.488,5.488,0,0,1-4.154-1.853,6.821,6.821,0,0,1,0-9.083,5.488,5.488,0,0,1,4.154-1.853,4.756,4.756,0,0,1,3.948,1.768Zm-5.765,8.7a3.226,3.226,0,0,0,2.4.957,3.267,3.267,0,0,0,2.41-.957,3.637,3.637,0,0,0,0-4.917,3.269,3.269,0,0,0-2.41-.957,3.228,3.228,0,0,0-2.4.957,3.672,3.672,0,0,0,0,4.917" transform="translate(0 -220.574)" fill="#2c72b7"/>
				<path id="Caminho_221" data-name="Caminho 221" d="M273.333,185.253h3.125v16.864h-2.5l-.624-1.429a4.687,4.687,0,0,1-3.924,1.768,5.513,5.513,0,0,1-4.178-1.853,6.821,6.821,0,0,1,0-9.083,5.513,5.513,0,0,1,4.178-1.853,4.688,4.688,0,0,1,3.924,1.768ZM267.58,198.52a3.266,3.266,0,0,0,2.41.957,3.226,3.226,0,0,0,2.4-.957,3.672,3.672,0,0,0,0-4.917,3.228,3.228,0,0,0-2.4-.957,3.268,3.268,0,0,0-2.41.957,3.637,3.637,0,0,0,0,4.917" transform="translate(-242.232 -170.301)" fill="#2c72b7"/>
				<path id="Caminho_222" data-name="Caminho 222" d="M160.292,259.282q.4.032.845.032c5,0,5.28-2.881,5.28-5.519V241.833h-3.124v11.18c0,1.909,0,3.3-2.156,3.3l-.845.025Z" transform="translate(-147.355 -222.315)" fill="#2c72b7"/>
				<path id="Caminho_223" data-name="Caminho 223" d="M69.125,8.715a4.183,4.183,0,0,0-2.977-1.233q-.209,0-.416.021V7.47A7.47,7.47,0,0,0,51,5.732q-.254-.025-.512-.026a5.1,5.1,0,1,0,0,10.2h6.8v.774h3.783V12.894H57.281v.774h-6.8a2.863,2.863,0,1,1,0-5.727,2.932,2.932,0,0,1,.309.016v2.88h5.588V8.6H53.029V7.47a5.234,5.234,0,0,1,10.468,0v4h2.235V9.76a1.976,1.976,0,1,1,.416,3.907H63.5V15.9h2.651a4.21,4.21,0,0,0,2.977-7.188" transform="translate(-41.724 -0.001)" fill="#2c72b7"/>
			</g>
		</g>
	</g>
</svg>
